<svg width="128" height="48" viewBox="0 0 128 48" fill="none" xmlns="http://www.w3.org/2000/svg">
<path d="M56.1858 37.4628C54.0519 37.4628 51.9823 37.18 49.977 36.6144C47.9974 36.023 46.4034 35.2646 45.195 34.3391L47.3161 29.6343C48.473 30.4827 49.8484 31.164 51.4424 31.6782C53.0364 32.1923 54.6304 32.4494 56.2244 32.4494C57.9983 32.4494 59.3095 32.1923 60.1579 31.6782C61.0063 31.1383 61.4305 30.4312 61.4305 29.5571C61.4305 28.9144 61.1734 28.3874 60.6592 27.976C60.1708 27.5389 59.528 27.1919 58.731 26.9348C57.9597 26.6777 56.9057 26.3949 55.5688 26.0864C53.512 25.5979 51.8281 25.1094 50.5169 24.6209C49.2057 24.1324 48.0745 23.3483 47.1232 22.2685C46.1977 21.1887 45.7349 19.749 45.7349 17.9493C45.7349 16.3811 46.1591 14.967 47.0075 13.7073C47.856 12.4218 49.1286 11.4063 50.8254 10.6607C52.5479 9.91514 54.6432 9.54236 57.1113 9.54236C58.8339 9.54236 60.5178 9.74803 62.1632 10.1594C63.8086 10.5707 65.2484 11.1621 66.4824 11.9333L64.5542 16.6767C62.0604 15.2627 59.5666 14.5557 57.0728 14.5557C55.3245 14.5557 54.0262 14.8385 53.1778 15.4041C52.3551 15.9697 51.9437 16.7153 51.9437 17.6408C51.9437 18.5664 52.4194 19.2605 53.3706 19.7233C54.3476 20.1603 55.8259 20.5974 57.8055 21.0345C59.8622 21.5229 61.5462 22.0114 62.8574 22.4999C64.1686 22.9884 65.2869 23.7597 66.2125 24.8137C67.1637 25.8678 67.6393 27.2947 67.6393 29.0944C67.6393 30.6369 67.2023 32.0509 66.3282 33.3364C65.4797 34.5962 64.1943 35.5988 62.4717 36.3444C60.7492 37.09 58.6539 37.4628 56.1858 37.4628Z" fill="#002E4C"/>
<path d="M16.0669 14.5551V30H12.748V23.514H5.58955V30H2.27062V14.5551H5.58955V20.8025H12.748V14.5551H16.0669ZM24.208 30.1735C23.0366 30.1735 22.0098 29.9422 21.1277 29.4794C20.26 29.0166 19.5875 28.3514 19.1103 27.4837C18.6475 26.616 18.4161 25.6037 18.4161 24.4468C18.4161 23.2898 18.6475 22.2775 19.1103 21.4098C19.5875 20.5422 20.26 19.8769 21.1277 19.4142C22.0098 18.9514 23.0366 18.72 24.208 18.72C25.3649 18.72 26.3772 18.9514 27.2449 19.4142C28.1126 19.8769 28.7778 20.5422 29.2406 21.4098C29.7178 22.2775 29.9564 23.2898 29.9564 24.4468C29.9564 25.6037 29.7178 26.616 29.2406 27.4837C28.7778 28.3514 28.1126 29.0166 27.2449 29.4794C26.3772 29.9422 25.3649 30.1735 24.208 30.1735ZM24.208 27.6789C25.0178 27.6789 25.6324 27.4114 26.0518 26.8763C26.4857 26.3412 26.7026 25.5314 26.7026 24.4468C26.7026 23.3766 26.4857 22.574 26.0518 22.0389C25.6324 21.4894 25.0178 21.2146 24.208 21.2146C23.3837 21.2146 22.7546 21.4894 22.3208 22.0389C21.8869 22.574 21.67 23.3766 21.67 24.4468C21.67 26.6015 22.516 27.6789 24.208 27.6789ZM42.5492 19.002V30H39.3604V28.3948C39.0133 28.9732 38.5578 29.4143 37.9938 29.718C37.4298 30.0217 36.7935 30.1735 36.0849 30.1735C34.711 30.1735 33.6842 29.7903 33.0046 29.0238C32.3249 28.2574 31.985 27.1005 31.985 25.5531V19.002H35.2606V25.6182C35.2606 26.9486 35.8318 27.6138 36.9742 27.6138C37.6539 27.6138 38.2035 27.3825 38.6229 26.9197C39.0422 26.4569 39.2519 25.8495 39.2519 25.0975V19.002H42.5492ZM79.4791 24.7722H72.2339C72.2918 25.7989 72.5593 26.5509 73.0365 27.0282C73.5137 27.4909 74.2224 27.7223 75.1624 27.7223C75.7264 27.7223 76.2904 27.6283 76.8544 27.4403C77.4184 27.2523 77.939 26.9775 78.4162 26.616L79.2839 28.8286C78.7633 29.248 78.1125 29.5806 77.3316 29.8265C76.5651 30.0578 75.7914 30.1735 75.0105 30.1735C73.1594 30.1735 71.7061 29.6674 70.6504 28.6551C69.5947 27.6283 69.0668 26.2328 69.0668 24.4685C69.0668 23.3549 69.291 22.3643 69.7393 21.4966C70.2021 20.6145 70.8456 19.9348 71.6699 19.4575C72.4942 18.9658 73.427 18.72 74.4682 18.72C76.0156 18.72 77.2376 19.2262 78.1342 20.2385C79.0308 21.2363 79.4791 22.5885 79.4791 24.2949V24.7722ZM74.555 21.0194C73.9331 21.0194 73.427 21.2002 73.0365 21.5617C72.6605 21.9232 72.4147 22.4511 72.299 23.1452H76.6591C76.4856 21.728 75.7842 21.0194 74.555 21.0194ZM92.5554 19.002V30H89.3232V28.3731C88.9906 28.9371 88.5206 29.3782 87.9132 29.6963C87.3058 30.0145 86.6189 30.1735 85.8524 30.1735C84.898 30.1735 84.052 29.9422 83.3144 29.4794C82.5914 29.0166 82.0201 28.3586 81.6007 27.5054C81.1958 26.6377 80.9934 25.6398 80.9934 24.5118C80.9934 23.3838 81.1958 22.3788 81.6007 21.4966C82.0201 20.6145 82.5986 19.9348 83.3361 19.4575C84.0737 18.9658 84.9124 18.72 85.8524 18.72C86.6189 18.72 87.3058 18.8863 87.9132 19.2189C88.5206 19.5515 88.9906 19.9998 89.3232 20.5638V19.002H92.5554ZM86.8069 27.6789C87.6167 27.6789 88.2386 27.4042 88.6724 26.8546C89.1063 26.3051 89.3232 25.5097 89.3232 24.4685C89.3232 23.4272 89.1063 22.6318 88.6724 22.0823C88.2386 21.5183 87.6167 21.2363 86.8069 21.2363C85.997 21.2363 85.368 21.5255 84.9197 22.104C84.4714 22.6825 84.2472 23.4851 84.2472 24.5118C84.2472 25.5386 84.4641 26.3268 84.898 26.8763C85.3463 27.4114 85.9826 27.6789 86.8069 27.6789ZM101.599 18.7417C102.061 18.7417 102.452 18.814 102.77 18.9586L102.748 21.9522C102.213 21.7063 101.678 21.5834 101.143 21.5834C100.275 21.5834 99.61 21.822 99.1473 22.2992C98.699 22.762 98.4748 23.4128 98.4748 24.2515V30H95.1993V22.1474C95.1993 20.976 95.1414 19.9275 95.0257 19.002H98.106L98.323 20.8892C98.5977 20.1951 99.0244 19.6672 99.6028 19.3057C100.196 18.9297 100.861 18.7417 101.599 18.7417ZM109.091 30.1735C107.298 30.1735 105.888 29.6674 104.861 28.6551C103.849 27.6428 103.342 26.2617 103.342 24.5118C103.342 23.3694 103.588 22.3643 104.08 21.4966C104.572 20.6145 105.259 19.9348 106.141 19.4575C107.037 18.9658 108.071 18.72 109.243 18.72C110.038 18.72 110.812 18.8429 111.564 19.0888C112.316 19.3346 112.916 19.6672 113.364 20.0866L112.497 22.3643C112.063 22.0172 111.585 21.7497 111.065 21.5617C110.544 21.3592 110.038 21.258 109.546 21.258C108.65 21.258 107.948 21.5328 107.442 22.0823C106.951 22.6174 106.705 23.4055 106.705 24.4468C106.705 25.5025 106.951 26.3051 107.442 26.8546C107.934 27.3897 108.635 27.6572 109.546 27.6572C110.038 27.6572 110.544 27.5632 111.065 27.3752C111.585 27.1728 112.063 26.898 112.497 26.5509L113.364 28.8286C112.887 29.248 112.265 29.5806 111.499 29.8265C110.732 30.0578 109.93 30.1735 109.091 30.1735ZM121.711 18.72C124.314 18.72 125.616 20.2602 125.616 23.3405V30H122.34V23.4923C122.34 22.7258 122.196 22.1691 121.906 21.822C121.632 21.4605 121.191 21.2797 120.583 21.2797C119.86 21.2797 119.282 21.5111 118.848 21.9738C118.414 22.4366 118.197 23.0585 118.197 23.8394V30H114.921V14.0345H118.197V20.4988C118.587 19.9203 119.086 19.4792 119.694 19.1755C120.301 18.8718 120.974 18.72 121.711 18.72Z" fill="white"/>
</svg>
