<svg width="32" height="25" viewBox="0 0 32 25" fill="none" xmlns="http://www.w3.org/2000/svg">
<rect width="32" height="24.3896" fill="#002E4C"/>
<path d="M22.0673 8.47424C22.0246 10.6097 21.1612 12.6467 19.6562 14.1624C18.1513 15.678 16.1204 16.5558 13.9853 16.6136L13.9662 15.906C15.9194 15.8531 17.7772 15.0501 19.1539 13.6636C20.5307 12.2771 21.3205 10.4136 21.3596 8.4601L22.0673 8.47424Z" fill="#C4C4C4"/>
<path d="M5.51835 8.44443C5.55354 10.592 6.41906 12.6425 7.93334 14.1658C9.44763 15.689 11.493 16.5667 13.6403 16.6146L13.6561 15.9069C11.6917 15.8631 9.82062 15.0602 8.43536 13.6667C7.05009 12.2732 6.25831 10.3974 6.22612 8.43283L5.51835 8.44443Z" fill="#C4C4C4"/>
<path d="M22.0675 8.21692C22.0271 6.06842 21.1558 4.01915 19.6365 2.49939C18.1173 0.979641 16.0684 0.107622 13.9199 0.066437L13.9063 0.774339C15.8717 0.812014 17.746 1.60972 19.1358 2.99996C20.5255 4.3902 21.3226 6.26483 21.3596 8.23024L22.0675 8.21692Z" fill="#C4C4C4"/>
<path d="M5.51829 8.24066C5.55272 6.08333 6.42503 4.024 7.9507 2.49834C9.47636 0.97269 11.5357 0.100383 13.693 0.0659678L13.7043 0.773568C11.7307 0.805051 9.84682 1.60306 8.45111 2.99876C7.0554 4.39446 6.25739 6.27838 6.22589 8.25195L5.51829 8.24066Z" fill="#C4C4C4"/>
<g clip-path="url(#clip0_8_85)">
<path fill-rule="evenodd" clip-rule="evenodd" d="M17.1034 7.34474L18.3494 8.34077H5.92643L12.1379 3.37526L14.8965 5.58053V5.03043H17.1034V7.34474ZM17.1034 8.34077V14.9615H7.17241V8.34077H17.1034Z" fill="#FEFFFF"/>
<rect x="9.3793" y="8.89249" width="2.75862" height="2.2069" rx="0.551724" fill="#002E4C"/>
<rect x="9.3793" y="11.6511" width="2.2069" height="2.2069" rx="0.551724" fill="#002E4C"/>
<rect x="12.6896" y="8.89249" width="2.2069" height="2.2069" rx="0.551724" fill="#002E4C"/>
<rect x="12.1379" y="11.6511" width="2.75862" height="2.2069" rx="0.551724" fill="#002E4C"/>
<path d="M14.8965 4.4787V3.92697H17.1034V4.4787H14.8965Z" fill="#FEFFFF" stroke="#FEFFFF" stroke-width="0.551724"/>
</g>
<circle cx="1.65517" cy="8.34076" r="1.65517" fill="#FEFFFF"/>
<circle cx="25.931" cy="8.34076" r="1.65517" fill="#FEFFFF"/>
<circle cx="30.3448" cy="8.34076" r="1.65517" fill="#FEFFFF"/>
<path d="M18.2489 14.8332L19.1407 14.1127L20.0324 13.3922C20.2285 13.9707 20.3781 14.2809 21.0726 14.6796L19.2892 16.1206C19.1562 15.3718 18.874 15.1406 18.2489 14.8332Z" fill="#C4C4C4"/>
<path d="M18.9753 17.6864C18.5922 17.2123 18.666 16.5176 19.14 16.1346L20.1837 15.2912L21.2275 14.4478C21.7015 14.0648 22.3962 14.1385 22.7792 14.6125L27.5021 20.4573C27.8852 20.9313 27.8114 21.6261 27.3374 22.0091L25.2499 23.6959C24.7759 24.0789 24.0812 24.0052 23.6982 23.5311L18.9753 17.6864Z" fill="#C4C4C4"/>
<circle cx="24.5517" cy="20.7546" r="1.93103" fill="#002E4C"/>
<defs>
<clipPath id="clip0_8_85">
<rect x="7.1724" y="1.72009" width="13.2414" height="13.2414" rx="6.62069" fill="white"/>
</clipPath>
</defs>
</svg>
