<svg width="24" height="24" viewBox="0 0 24 24" fill="none" xmlns="http://www.w3.org/2000/svg">
<g clip-path="url(#clip0_417_2579)">
<path d="M11.2942 7.34581L13.5554 7.94165C13.6322 7.9596 13.7009 8.00243 13.7509 8.06346C13.8008 8.12449 13.8292 8.20031 13.8317 8.27915C13.8317 8.47081 13.6613 8.62915 13.4517 8.62915H11.9683C11.8085 8.62868 11.6502 8.59757 11.5021 8.53748C11.2837 8.44581 11.0321 8.46665 10.8646 8.62081L10.0729 9.34998C10.0363 9.38203 10.0047 9.41939 9.97917 9.46081C9.94648 9.51442 9.92473 9.57398 9.91517 9.63603C9.90561 9.69809 9.90842 9.76143 9.92345 9.82239C9.93847 9.88336 9.96542 9.94074 10.0027 9.99125C10.04 10.0417 10.087 10.0844 10.1408 10.1166C10.5793 10.3798 11.0701 10.5433 11.5788 10.5958V11.3333C11.5788 11.7 11.905 12 12.3025 12H13.0263C13.4242 12 13.7504 11.7 13.7504 11.3333V10.6C15.1225 10.45 16.1604 9.30831 15.9796 7.97498C15.8483 7.01665 15.0438 6.25415 14.0396 5.98748L11.7783 5.39165C11.7015 5.37369 11.6328 5.33087 11.5829 5.26983C11.5329 5.2088 11.5045 5.13298 11.5021 5.05415C11.5021 4.86248 11.6725 4.70415 11.8821 4.70415H13.3654C13.5258 4.7044 13.6847 4.73552 13.8333 4.79581C14.0513 4.88748 14.3033 4.86665 14.4708 4.71248L15.2625 3.98331C15.2979 3.95194 15.3284 3.91542 15.3529 3.87498C15.3859 3.82139 15.4079 3.76179 15.4177 3.69964C15.4275 3.63748 15.4249 3.57401 15.41 3.51287C15.3951 3.45174 15.3683 3.39415 15.331 3.34345C15.2938 3.29275 15.2468 3.24994 15.1929 3.21748C14.7543 2.95437 14.2633 2.79079 13.7546 2.73831V1.99998C13.7546 1.63331 13.4287 1.33331 13.0308 1.33331H12.3071C11.9092 1.33331 11.5833 1.63331 11.5833 1.99998V2.73331C10.2129 2.88331 9.17292 4.02498 9.35375 5.35831C9.48458 6.31665 10.2917 7.07915 11.2942 7.34581ZM23.5529 15.0041C23.0613 14.5583 22.2946 14.5875 21.7779 15.0041L17.9279 18.0833C17.4553 18.4625 16.8671 18.6683 16.2612 18.6666H11.3333C11.1565 18.6666 10.987 18.5964 10.8619 18.4714C10.7369 18.3464 10.6667 18.1768 10.6667 18C10.6667 17.8232 10.7369 17.6536 10.8619 17.5286C10.987 17.4035 11.1565 17.3333 11.3333 17.3333H14.5954C15.2579 17.3333 15.875 16.8791 15.9808 16.225C15.9939 16.1499 16.0003 16.0737 16 15.9975C15.9993 15.6443 15.8586 15.3058 15.6086 15.0563C15.3586 14.8068 15.0199 14.6666 14.6667 14.6666H8C6.87567 14.6669 5.78561 15.0537 4.9125 15.7621L2.975 17.3333H0.666667C0.489856 17.3333 0.320286 17.4035 0.195262 17.5286C0.0702379 17.6536 0 17.8232 0 18L0 22C0 22.1768 0.0702379 22.3464 0.195262 22.4714C0.320286 22.5964 0.489856 22.6666 0.666667 22.6666H15.5321C16.1378 22.6671 16.7256 22.4614 17.1987 22.0833L23.5 17.0416C23.6516 16.9204 23.7749 16.7675 23.8612 16.5937C23.9476 16.4199 23.995 16.2293 24.0001 16.0353C24.0051 15.8413 23.9678 15.6485 23.8906 15.4704C23.8135 15.2923 23.6984 15.1331 23.5533 15.0041H23.5529Z" fill="#002E4C"/>
</g>
<defs>
<clipPath id="clip0_417_2579">
<rect width="24" height="24" fill="white"/>
</clipPath>
</defs>
</svg>
