<svg width="130" height="48" viewBox="0 0 130 48" fill="none" xmlns="http://www.w3.org/2000/svg">
<path d="M57.0198 38.4726C54.8405 38.4726 52.7268 38.1838 50.6788 37.6062C48.6571 37.0023 47.0292 36.2277 45.7952 35.2825L47.9613 30.4775C49.1428 31.344 50.5476 32.0398 52.1755 32.5649C53.8034 33.0901 55.4313 33.3526 57.0592 33.3526C58.8708 33.3526 60.2099 33.0901 61.0764 32.5649C61.9428 32.0135 62.3761 31.2915 62.3761 30.3988C62.3761 29.7424 62.1135 29.2041 61.5884 28.784C61.0895 28.3376 60.4331 27.9832 59.6192 27.7206C58.8315 27.4581 57.7549 27.1692 56.3896 26.8542C54.2891 26.3553 52.5693 25.8564 51.2302 25.3575C49.8912 24.8587 48.7359 24.0578 47.7644 22.9551C46.8192 21.8523 46.3465 20.3819 46.3465 18.544C46.3465 16.9424 46.7798 15.4983 47.6462 14.2117C48.5127 12.8989 49.8124 11.8617 51.5453 11.1003C53.3045 10.3389 55.4444 9.95815 57.965 9.95815C59.7242 9.95815 61.444 10.1682 63.1244 10.5883C64.8048 11.0084 66.2752 11.6123 67.5355 12.4L65.5662 17.2443C63.0194 15.8002 60.4725 15.0782 57.9256 15.0782C56.1402 15.0782 54.8142 15.367 53.9478 15.9446C53.1076 16.5223 52.6875 17.2837 52.6875 18.2289C52.6875 19.1742 53.1732 19.8831 54.1447 20.3557C55.1424 20.802 56.6522 21.2484 58.6739 21.6948C60.7744 22.1936 62.4942 22.6925 63.8333 23.1914C65.1724 23.6903 66.3145 24.4779 67.2598 25.5545C68.2313 26.631 68.717 28.0882 68.717 29.9262C68.717 31.5015 68.2706 32.9456 67.3779 34.2585C66.5115 35.545 65.1986 36.569 63.4395 37.3305C61.6803 38.0919 59.5404 38.4726 57.0198 38.4726Z" fill="#002E4C"/>
<path d="M16.047 14.2265V30H12.6575V23.376H5.34674V30H1.9572V14.2265H5.34674V20.6068H12.6575V14.2265H16.047ZM24.3613 30.1772C23.165 30.1772 22.1164 29.9409 21.2155 29.4683C20.3293 28.9957 19.6425 28.3163 19.1552 27.4302C18.6825 26.544 18.4462 25.5102 18.4462 24.3286C18.4462 23.1471 18.6825 22.1132 19.1552 21.2271C19.6425 20.3409 20.3293 19.6615 21.2155 19.1889C22.1164 18.7163 23.165 18.48 24.3613 18.48C25.5429 18.48 26.5767 18.7163 27.4629 19.1889C28.349 19.6615 29.0284 20.3409 29.501 21.2271C29.9884 22.1132 30.2321 23.1471 30.2321 24.3286C30.2321 25.5102 29.9884 26.544 29.501 27.4302C29.0284 28.3163 28.349 28.9957 27.4629 29.4683C26.5767 29.9409 25.5429 30.1772 24.3613 30.1772ZM24.3613 27.6295C25.1884 27.6295 25.8161 27.3563 26.2444 26.8098C26.6875 26.2634 26.909 25.4363 26.909 24.3286C26.909 23.2357 26.6875 22.416 26.2444 21.8695C25.8161 21.3083 25.1884 21.0277 24.3613 21.0277C23.5195 21.0277 22.877 21.3083 22.4339 21.8695C21.9909 22.416 21.7693 23.2357 21.7693 24.3286C21.7693 26.5292 22.6333 27.6295 24.3613 27.6295ZM43.0927 18.768V30H39.8361V28.3606C39.4817 28.9514 39.0164 29.4018 38.4404 29.712C37.8644 30.0222 37.2146 30.1772 36.4909 30.1772C35.0878 30.1772 34.0392 29.7858 33.345 29.0031C32.6509 28.2203 32.3038 27.0388 32.3038 25.4585V18.768H35.649V25.5249C35.649 26.8837 36.2324 27.5631 37.3992 27.5631C38.0934 27.5631 38.6546 27.3268 39.0829 26.8542C39.5112 26.3815 39.7254 25.7612 39.7254 24.9932V18.768H43.0927ZM80.8085 24.6609H73.4091C73.4681 25.7095 73.7414 26.4775 74.2288 26.9649C74.7161 27.4375 75.4398 27.6738 76.3998 27.6738C76.9758 27.6738 77.5518 27.5778 78.1278 27.3858C78.7038 27.1938 79.2355 26.9132 79.7229 26.544L80.6091 28.8037C80.0774 29.232 79.4128 29.5717 78.6152 29.8228C77.8325 30.0591 77.0423 30.1772 76.2448 30.1772C74.3543 30.1772 72.87 29.6603 71.7918 28.6265C70.7137 27.5778 70.1746 26.1526 70.1746 24.3508C70.1746 23.2135 70.4035 22.2018 70.8614 21.3157C71.334 20.4148 71.9912 19.7206 72.8331 19.2332C73.6749 18.7311 74.6275 18.48 75.6909 18.48C77.2712 18.48 78.5192 18.9969 79.4349 20.0308C80.3506 21.0498 80.8085 22.4308 80.8085 24.1735V24.6609ZM75.7795 20.8283C75.1445 20.8283 74.6275 21.0129 74.2288 21.3822C73.8448 21.7514 73.5937 22.2905 73.4755 22.9994H77.9285C77.7512 21.552 77.0349 20.8283 75.7795 20.8283ZM94.1629 18.768V30H90.862V28.3385C90.5223 28.9145 90.0423 29.3649 89.422 29.6898C88.8017 30.0148 88.1001 30.1772 87.3174 30.1772C86.3426 30.1772 85.4786 29.9409 84.7254 29.4683C83.9869 28.9957 83.4035 28.3237 82.9752 27.4523C82.5617 26.5662 82.3549 25.5471 82.3549 24.3951C82.3549 23.2431 82.5617 22.2166 82.9752 21.3157C83.4035 20.4148 83.9943 19.7206 84.7475 19.2332C85.5007 18.7311 86.3574 18.48 87.3174 18.48C88.1001 18.48 88.8017 18.6498 89.422 18.9895C90.0423 19.3292 90.5223 19.7871 90.862 20.3631V18.768H94.1629ZM88.2921 27.6295C89.1192 27.6295 89.7543 27.3489 90.1974 26.7877C90.6404 26.2265 90.862 25.4142 90.862 24.3508C90.862 23.2874 90.6404 22.4751 90.1974 21.9138C89.7543 21.3378 89.1192 21.0498 88.2921 21.0498C87.4651 21.0498 86.8226 21.3452 86.3647 21.936C85.9069 22.5268 85.678 23.3465 85.678 24.3951C85.678 25.4437 85.8995 26.2486 86.3426 26.8098C86.8004 27.3563 87.4503 27.6295 88.2921 27.6295ZM103.398 18.5022C103.871 18.5022 104.27 18.576 104.595 18.7237L104.573 21.7809C104.026 21.5298 103.48 21.4043 102.933 21.4043C102.047 21.4043 101.368 21.648 100.895 22.1354C100.437 22.608 100.208 23.2726 100.208 24.1292V30H96.8631V21.9803C96.8631 20.784 96.804 19.7132 96.6858 18.768H99.8317L100.053 20.6954C100.334 19.9865 100.77 19.4474 101.36 19.0782C101.966 18.6942 102.645 18.5022 103.398 18.5022ZM111.05 30.1772C109.219 30.1772 107.779 29.6603 106.73 28.6265C105.696 27.5926 105.179 26.1822 105.179 24.3951C105.179 23.2283 105.43 22.2018 105.933 21.3157C106.435 20.4148 107.136 19.7206 108.037 19.2332C108.953 18.7311 110.009 18.48 111.205 18.48C112.018 18.48 112.808 18.6055 113.576 18.8566C114.344 19.1077 114.957 19.4474 115.414 19.8757L114.528 22.2018C114.085 21.8474 113.598 21.5742 113.066 21.3822C112.534 21.1754 112.018 21.072 111.515 21.072C110.6 21.072 109.883 21.3526 109.366 21.9138C108.864 22.4603 108.613 23.2652 108.613 24.3286C108.613 25.4068 108.864 26.2265 109.366 26.7877C109.869 27.3342 110.585 27.6074 111.515 27.6074C112.018 27.6074 112.534 27.5114 113.066 27.3194C113.598 27.1126 114.085 26.832 114.528 26.4775L115.414 28.8037C114.927 29.232 114.292 29.5717 113.509 29.8228C112.726 30.0591 111.907 30.1772 111.05 30.1772ZM123.939 18.48C126.598 18.48 127.927 20.0529 127.927 23.1988V30H124.582V23.3538C124.582 22.5711 124.434 22.0025 124.138 21.648C123.858 21.2788 123.407 21.0942 122.787 21.0942C122.049 21.0942 121.458 21.3305 121.015 21.8031C120.572 22.2757 120.35 22.9108 120.35 23.7083V30H117.005V13.6948H120.35V20.2966C120.749 19.7058 121.258 19.2554 121.879 18.9452C122.499 18.6351 123.186 18.48 123.939 18.48Z" fill="#23CD9D"/>
</svg>
