<svg width="24" height="24" viewBox="0 0 24 24" fill="none" xmlns="http://www.w3.org/2000/svg">
<path d="M21.2402 3.7037C20.6828 3.14629 20.021 2.70418 19.2927 2.40264C18.5643 2.1011 17.7837 1.94605 16.9954 1.94635C16.207 1.94665 15.4265 2.10228 14.6984 2.40437C13.9703 2.70645 13.3088 3.14905 12.7518 3.70689L12.0247 4.44283L11.3037 3.70848L11.299 3.7038C10.7418 3.14664 10.0804 2.70468 9.35245 2.40315C8.62449 2.10162 7.84427 1.94642 7.05634 1.94642C6.2684 1.94642 5.48818 2.10162 4.76023 2.40315C4.03227 2.70468 3.37083 3.14664 2.81368 3.7038L2.48977 4.0277C1.36456 5.15292 0.732422 6.67904 0.732422 8.27034C0.732422 9.86163 1.36456 11.3878 2.48977 12.513L11.0385 21.0616L12.0039 22.0731L12.0269 22.05L12.0519 22.075L12.9564 21.1207L21.5641 12.5128C22.6877 11.3867 23.3187 9.86093 23.3187 8.2702C23.3187 6.67946 22.6877 5.15367 21.5641 4.02756L21.2402 3.7037ZM20.5033 11.4522L12.0269 19.9287L3.55037 11.4522C2.70646 10.6083 2.23236 9.46369 2.23236 8.27022C2.23236 7.07675 2.70646 5.93216 3.55037 5.08825L3.87432 4.76434C4.71782 3.92085 5.86172 3.44678 7.0546 3.44634C8.24748 3.44589 9.39173 3.91909 10.2359 4.76195L12.0215 6.58009L13.8156 4.76434C14.2334 4.34648 14.7295 4.01501 15.2755 3.78886C15.8214 3.56271 16.4066 3.44631 16.9976 3.44631C17.5885 3.44631 18.1737 3.56271 18.7196 3.78886C19.2656 4.01501 19.7617 4.34648 20.1796 4.76434L20.5035 5.0882C21.3461 5.93281 21.8193 7.07717 21.8193 8.27023C21.8192 9.4633 21.346 10.6076 20.5033 11.4522V11.4522Z" fill="#fff"/>
</svg>
