<svg width="17" height="21" viewBox="0 0 17 21" fill="none" xmlns="http://www.w3.org/2000/svg">
<path d="M8.5 5.21141e-08C9.07633 -0.000117575 9.63499 0.198892 10.0815 0.563347C10.5279 0.927802 10.8347 1.43532 10.95 2H14C14.7956 2 15.5587 2.31607 16.1213 2.87868C16.6839 3.44129 17 4.20435 17 5V18C17 18.7956 16.6839 19.5587 16.1213 20.1213C15.5587 20.6839 14.7956 21 14 21H3C2.20435 21 1.44129 20.6839 0.87868 20.1213C0.316071 19.5587 0 18.7956 0 18V5C0 4.20435 0.316071 3.44129 0.87868 2.87868C1.44129 2.31607 2.20435 2 3 2H6.05C6.16527 1.43532 6.47209 0.927802 6.91855 0.563347C7.36501 0.198892 7.92367 -0.000117575 8.5 5.21141e-08ZM9.915 2C9.81193 1.70701 9.62045 1.45323 9.36699 1.27371C9.11353 1.09419 8.8106 0.99777 8.5 0.99777C8.1894 0.99777 7.88647 1.09419 7.63301 1.27371C7.37955 1.45323 7.18807 1.70701 7.085 2H9.915ZM3 3C2.46957 3 1.96086 3.21071 1.58579 3.58579C1.21071 3.96086 1 4.46957 1 5V18C1 18.5304 1.21071 19.0391 1.58579 19.4142C1.96086 19.7893 2.46957 20 3 20H14C14.5304 20 15.0391 19.7893 15.4142 19.4142C15.7893 19.0391 16 18.5304 16 18V5C16 4.46957 15.7893 3.96086 15.4142 3.58579C15.0391 3.21071 14.5304 3 14 3H13V6H4V3H3ZM5 3V5H12V3H5Z" fill="white"/>
</svg>
