<svg width="13" height="15" viewBox="0 0 13 15" fill="none" xmlns="http://www.w3.org/2000/svg">
<path d="M6.52344 3.72244e-08C6.93026 -8.39824e-05 7.32461 0.142066 7.63976 0.402391C7.9549 0.662716 8.17149 1.02523 8.25285 1.42857H10.4058C10.9674 1.42857 11.6263 1.59814 12.0234 2C12.4206 2.40186 12.5234 3.00311 12.5234 3.57143V12.8571C12.5234 13.4255 12.4937 14.1005 12.0942 14.5C11.5942 15 10.9674 15 10.4058 15H2.64108C2.07945 15 1.52344 15 1.02344 14.5C0.626302 14.0981 0.523438 13.4255 0.523438 12.8571V3.57143C0.523438 3.00311 0.746546 2.45806 1.14368 2.0562C1.54082 1.65434 2.07945 1.42857 2.64108 1.42857H4.79403C4.87539 1.02523 5.09197 0.662716 5.40712 0.402391C5.72227 0.142066 6.11662 -8.39824e-05 6.52344 3.72244e-08ZM7.52226 1.42857C7.44951 1.21929 7.31434 1.03802 7.13543 0.909792C6.95652 0.781561 6.74268 0.712693 6.52344 0.712693C6.30419 0.712693 6.09036 0.781561 5.91144 0.909792C5.73253 1.03802 5.59737 1.21929 5.52461 1.42857H7.52226ZM2.52344 2.5C2.14901 2.5 1.97266 2.5 2 2.5C1.55296 2.5 1.52344 3.12112 1.52344 3.5V12.8571C1.60005 13.5 1.65762 14 2.09424 14C2.66513 14 2.26666 14 2.64108 14H10.4058C10.7802 14 10.5943 14 11.0943 14C11.5943 14 11.5234 13.236 11.5234 12.8571V3.57143C11.5234 3.19255 11.5234 3.5 11.5234 3C11.5234 2.5 10.8979 2.5 10.5234 2.5H10.0234V4.28571H2.93798V2.5H2.52344ZM4.05285 2.34659V3.57143H8.99403V2.34659H4.05285Z" fill="white"/>
</svg>
